Source: Over.The.Top.720p.BluRay.x264-HDCLASSiCS

Subs: Arabic, Brazilian, Bulgarian, Croatian, Danish, Dutch, English, Romanian, Slovenian and Spanish.

Sample and Screens included.

General
Complete name                    : Over The Top-720p MP4 AAC x264 BRRip 1987-CC.mp4
Format                           : MPEG-4
Format profile                   : Base Media
Codec ID                         : isom
File size                        : 1.88 GiB
Duration                         : 1h 33mn
Overall bit rate                 : 2 875 Kbps
Encoded date                     : UTC 2012-03-29 08:30:40

Video
ID                               : 1
Format                           : AVC
Format/Info                      : Advanced Video Codec
Format profile                   : High@L3.1
Format settings, CABAC           : Yes
Format settings, ReFrames        : 5 frames
Codec ID                         : avc1
Codec ID/Info                    : Advanced Video Coding
Duration                         : 1h 33mn
Bit rate mode                    : Variable
Bit rate                         : 2 486 Kbps
Nominal bit rate                 : 2 539 Kbps
Maximum bit rate                 : 21.6 Mbps
Width                            : 1 280 pixels
Height                           : 528 pixels
Display aspect ratio             : 2.40:1
Frame rate mode                  : Variable
Frame rate                       : 23.976 fps
Minimum frame rate               : 19.048 fps
Maximum frame rate               : 24.390 fps
Resolution                       : 24 bits
Colorimetry                      : 4:2:0
Scan type                        : Progressive
Bits/(Pixel*Frame)               : 0.153
Stream size                      : 1.63 GiB (86%)
Writing library                  : x264 core 112


Audio
ID                               : 2
Format                           : AAC
Format/Info                      : Advanced Audio Codec
Format version                   : Version 4
Format profile                   : LC
Format settings, SBR             : No
Codec ID                         : 40
Duration                         : 1h 33mn
Bit rate mode                    : Variable
Bit rate                         : 384 Kbps
Maximum bit rate                 : 597 Kbps
Channel(s)                       : 6 channels
Channel positions                : Front: L C R, Rear: L R, LFE
Sampling rate                    : 48.0 KHz
Resolution                       : 16 bits
Stream size                      : 257 MiB (13%)
Language                         : English